<?xml version="1.0" standalone="yes"?>

<svg version="1.1" viewBox="0.0 0.0 490.0 490.0" fill="none" stroke="none" stroke-linecap="square" stroke-miterlimit="10" xmlns="http://www.w3.org/2000/svg" xmlns:xlink="http://www.w3.org/1999/xlink"><clipPath id="p.0"><path d="m0 0l490.0 0l0 490.0l-490.0 0l0 -490.0z" clip-rule="nonzero"></path></clipPath><g clip-path="url(#p.0)"><path fill="#000000" fill-opacity="0.0" d="m0 0l490.34122 0l0 490.99738l-490.34122 0z" fill-rule="nonzero"></path><path fill="#000000" fill-opacity="0.0" d="m26.26509 244.87138l0 0c0 -121.81574 98.75118 -220.56693 220.56693 -220.56693l0 0c58.498 0 114.60005 23.238235 155.96437 64.602554c41.36432 41.364326 64.60257 97.46638 64.60257 155.96436l0 0c0 121.81575 -98.75119 220.56694 -220.56694 220.56694l0 0c-121.81574 0 -220.56693 -98.75119 -220.56693 -220.56694z" fill-rule="nonzero"></path><path stroke="#ffffff" stroke-width="24.0" stroke-linejoin="round" stroke-linecap="butt" d="m26.26509 244.87138l0 0c0 -121.81574 98.75118 -220.56693 220.56693 -220.56693l0 0c58.498 0 114.60005 23.238235 155.96437 64.602554c41.36432 41.364326 64.60257 97.46638 64.60257 155.96436l0 0c0 121.81575 -98.75119 220.56694 -220.56694 220.56694l0 0c-121.81574 0 -220.56693 -98.75119 -220.56693 -220.56694z" fill-rule="nonzero"></path><path fill="#000000" fill-opacity="0.0" d="m302.52493 103.238846l-143.38582 143.38582l139.87926 139.87927" fill-rule="nonzero"></path><path stroke="#ffffff" stroke-width="24.0" stroke-linejoin="round" stroke-linecap="butt" d="m302.52493 103.238846l-143.38582 143.38582l139.87926 139.87927" fill-rule="nonzero"></path></g></svg>

